# xmcd CD database file generated by Grip 2.94
# 
# Track frame offsets:
#       183
#       13263
#       24323
#       41693
#       52503
#       65115
#       77200
#       91645
#       102863
#       114048
#       124618
#       136843
#       153120
#       166275
#       178783
#       190088
#       204668
#       218920
# 
# Disc length: 3065 seconds
# 
# Revision: 3
# Processed by: cddbd v1.4b41PL1 Copyright (c) Steve Scherf et al.
# Submitted via: Grip 2.94
# 
DISCID=e00bf712
DTITLE=Davy Graham - Folk, Blues and Beyond
DYEAR=1900
DGENRE=
TTITLE0=Leavin' Blues
TTITLE1=Cocaine
TTITLE2=Sally Free And Easy
TTITLE3=Black is the Colour of My True Love's Hair
TTITLE4=Rock Me Baby
TTITLE5=Seven Gypsies
TTITLE6=Ballad of the Sad Young Men
TTITLE7=Moanin'
TTITLE8=Skillet
TTITLE9=Ain't Nobody's Business If I DO
TTITLE10=Guitar Solo: Maajun (A Taste of Tangier)
TTITLE11=I Can't Keep From Crying Sometimes
TTITLE12=Don't Think Twice, It's All Right
TTITLE13=My Babe
TTITLE14=Goin' Down Slow
TTITLE15=She Moved Thro' The Fair
TTITLE16=Mustapha
TTITLE17=Better Git In Your Soul
EXTD=
EXTT0=
EXTT1=
EXTT2=
EXTT3=
EXTT4=
EXTT5=
EXTT6=
EXTT7=
EXTT8=
EXTT9=
EXTT10=
EXTT11=
EXTT12=
EXTT13=
EXTT14=
EXTT15=
EXTT16=
EXTT17=
PLAYORDER=
